<?xml version="1.0" encoding="utf-8"?>
<!-- Generator: Adobe Illustrator 19.0.0, SVG Export Plug-In . SVG Version: 6.00 Build 0)  -->
<svg version="1.1" id="Layer_1" xmlns="http://www.w3.org/2000/svg" xmlns:xlink="http://www.w3.org/1999/xlink" x="0px" y="0px"
	 viewBox="-268 359.1 74.9 74.9" style="enable-background:new -268 359.1 74.9 74.9;" xml:space="preserve">
<style type="text/css">
	.st0{fill:#FF8D40;}
	.st1{fill:#FFFFFF;}
</style>
<circle class="st0" cx="-231" cy="396.6" r="28.6"/>
<path class="st1" d="M-231.3,382.3c-7.2,0-13.1,6.5-13.1,14.5c0,8,5.9,14.5,13.1,14.5c2.9,0,5.6-1.1,7.7-2.8c1.8,1.5,3.9,2.7,6,3.7
	l2-5.1c-2.2-0.3-3.7-1.1-5-2c1.5-2.3,2.4-5.2,2.4-8.3C-218.3,388.8-224.1,382.3-231.3,382.3L-231.3,382.3z M-231.3,387
	c4.2,0,7.5,4.4,7.5,9.7c0,5.4-3.4,9.7-7.5,9.7c-4.2,0-7.5-4.4-7.5-9.7C-238.9,391.4-235.5,387-231.3,387z"/>
</svg>
